<?xml version="1.0" encoding="UTF-8"?>
<svg id="Layer_2" data-name="Layer 2" xmlns="http://www.w3.org/2000/svg" viewBox="0 0 268.35 207.88">
  <defs>
    <style>
      .cls-1 {
        fill: #ff5d24;
      }
    </style>
  </defs>
  <g id="Layer_1-2" data-name="Layer 1">
    <path class="cls-1" d="M189.71,28.87c9.48-15.72,20.26-34.88,42.83-27.07,14.11,4.88,26.49,14.48,34.03,27.25,2.69,4.56,2.61,11.07-2.07,13.78-18.2,10.53-40.45-18.77-54.67-10.11,22.93,10.11,38.33,33.2,36.98,58.7-.72,13.52-6.07,25.23-15.57,34.36,10.17,6.79,16.38,16.86,18.05,29.1,2.8,20.51-8.49,39.23-27.84,47.11-29.08,11.84-67.11,6.15-87.57-20.27-20.56,26.84-63.14,32.83-91.51,18.87-14.51-7.14-23.75-20.36-24.94-35.48-1.29-16.36,5.65-31.7,19.96-40.34-9.17-10.41-14.02-22.95-13.19-37.07,1.37-23.29,15.37-43.54,36.29-54.06-4.26-3.09-10.6-3.02-15.5-.3l-14.09,7.83c-7.61,4.23-23.58,11-29.44,2.03C-6.38,31.25,19.34,6.88,38.55,1.7c21.01-5.66,31.15,13.66,40.87,27.18,23.42-.23,43.82,11.77,50.82,34.87,9.51,31.42-9.08,65.18-40.83,74-7.02,1.95-14.04,1.3-20.86,2.15-10,1.25-17.03,9.13-17.06,18.39s6.69,16.93,16.94,18.79c19.1,3.46,45.77-3.91,57.44-21.23-7.63-2.96-15.73-6.78-15.64-15.55.03-3.13,2.51-7.65,5.83-9.53,15.44-8.73,39.11-3.73,41.68,6.98,2.34,9.76-6.53,14.85-15.18,18.08,9.96,19.56,55.51,31.3,69.42,13.36,4.35-5.61,4.6-12.79,1.34-19.46-2.4-4.92-8.8-10.1-15.95-9.98-23.85.41-44.73-12.8-53.81-35.19-8.49-20.95-4.32-44.98,11.87-60.99,9.36-9.26,21.46-13.17,34.28-14.69ZM90.33,104.81c9.09-7.49,12.51-19.06,10.17-30.02-2.48-11.61-13.64-18.38-25.07-14.73-18.43,5.88-24.82,32.49-13.8,43.96,7.49,7.8,20.07,7.9,28.71.79ZM203.11,108.39c6.28-2.52,10.17-8.27,11.39-14.46,2.31-11.73-2.28-23.71-11.82-30.84-10.25-7.66-24.43-3.94-29.81,7.7-4.59,9.93-2.67,21.33,3.94,30.19,5.92,7.93,16.59,11.32,26.3,7.42Z"/>
  </g>
</svg>